<svg xmlns="http://www.w3.org/2000/svg" xmlns:xlink="http://www.w3.org/1999/xlink" width="500" zoomAndPan="magnify" viewBox="0 0 375 374.999991" height="500" preserveAspectRatio="xMidYMid meet" version="1.0"><defs><clipPath id="13bcfa5e44"><path d="M 24.5625 1 L 350.0625 1 L 350.0625 372 L 24.5625 372 Z M 24.5625 1 " clip-rule="nonzero"/></clipPath></defs><g clip-path="url(#13bcfa5e44)"><path fill="#e44d26" d="M 54.113281 334.4375 L 24.46875 1.335938 L 350.15625 1.335938 L 320.492188 334.390625 L 187.105469 371.425781 Z M 54.113281 334.4375 " fill-opacity="1" fill-rule="nonzero"/></g><path fill="#f16529" d="M 295.085938 313.179688 L 320.445312 28.574219 L 187.3125 28.574219 L 187.3125 343.125 Z M 295.085938 313.179688 " fill-opacity="1" fill-rule="nonzero"/><path fill="#ebebeb" d="M 187.175781 69.421875 L 85.070312 69.421875 L 96.070312 192.96875 L 187.3125 192.96875 L 187.3125 152.117188 L 133.363281 152.117188 L 129.632812 110.285156 L 187.3125 110.285156 L 187.3125 69.421875 Z M 187.3125 258.082031 L 187.140625 258.128906 L 141.730469 245.84375 L 138.84375 213.265625 L 97.894531 213.265625 L 103.605469 277.40625 L 187.128906 300.539062 L 187.3125 300.480469 Z M 187.3125 258.082031 " fill-opacity="1" fill-rule="nonzero"/><path fill="#ffffff" d="M 187.175781 192.96875 L 237.382812 192.96875 L 232.765625 245.9375 L 187.289062 258.230469 L 187.289062 300.734375 L 270.882812 277.523438 L 282.078125 152.09375 L 187.3125 152.09375 Z M 288.332031 80.386719 L 289.304688 69.421875 L 187.152344 69.421875 L 187.152344 110.273438 L 285.632812 110.273438 L 286.441406 101.089844 Z M 288.332031 80.386719 " fill-opacity="1" fill-rule="nonzero"/></svg>