<svg xmlns="http://www.w3.org/2000/svg" xmlns:xlink="http://www.w3.org/1999/xlink" width="500" zoomAndPan="magnify" viewBox="0 0 375 374.999991" height="500" preserveAspectRatio="xMidYMid meet" version="1.0"><defs><clipPath id="066fda9591"><path d="M 19.160156 0 L 355.910156 0 L 355.910156 375 L 19.160156 375 Z M 19.160156 0 " clip-rule="nonzero"/></clipPath></defs><g clip-path="url(#066fda9591)"><path fill="#0277bd" d="M 355.863281 -1.175781 L 19.207031 -1.175781 L 48.914062 335.691406 L 187.535156 375.324219 L 326.160156 335.691406 Z M 355.863281 -1.175781 " fill-opacity="1" fill-rule="nonzero"/></g><path fill="#039be5" d="M 187.535156 28.546875 L 187.535156 344.609375 L 298.433594 312.902344 L 323.1875 28.546875 Z M 187.535156 28.546875 " fill-opacity="1" fill-rule="nonzero"/><path fill="#ffffff" d="M 277.640625 78.085938 L 187.535156 78.085938 L 187.535156 117.71875 L 236.054688 117.71875 L 233.082031 157.351562 L 187.535156 157.351562 L 187.535156 196.980469 L 231.101562 196.980469 L 228.132812 241.566406 L 187.535156 255.4375 L 187.535156 297.050781 L 265.757812 271.289062 L 272.691406 157.351562 Z M 277.640625 78.085938 " fill-opacity="1" fill-rule="nonzero"/><path fill="#eeeeee" d="M 187.535156 78.085938 L 187.535156 117.71875 L 99.410156 117.71875 L 96.441406 78.085938 Z M 141.988281 157.351562 L 143.96875 196.980469 L 187.535156 196.980469 L 187.535156 157.351562 Z M 145.949219 216.796875 L 106.34375 216.796875 L 109.3125 271.289062 L 187.535156 297.050781 L 187.535156 255.4375 L 146.9375 241.566406 Z M 145.949219 216.796875 " fill-opacity="1" fill-rule="nonzero"/></svg>