<svg xmlns="http://www.w3.org/2000/svg" xmlns:xlink="http://www.w3.org/1999/xlink" width="500" zoomAndPan="magnify" viewBox="0 0 375 374.999991" height="500" preserveAspectRatio="xMidYMid meet" version="1.0"><path fill="#8cc84b" d="M 172.742188 17.191406 C 181.457031 12.25 192.566406 12.226562 201.0625 17.191406 L 331.167969 90.65625 C 339.304688 95.242188 344.753906 104.328125 344.675781 113.722656 L 344.675781 261.027344 C 344.730469 270.8125 338.75 280.097656 330.167969 284.59375 L 200.757812 357.71875 C 199.65625 358.332031 198.519531 358.863281 197.347656 359.320312 C 196.175781 359.78125 194.976562 360.15625 193.753906 360.457031 C 192.53125 360.753906 191.292969 360.96875 190.042969 361.101562 C 188.789062 361.234375 187.535156 361.285156 186.277344 361.25 C 185.019531 361.214844 183.769531 361.097656 182.527344 360.894531 C 181.285156 360.691406 180.058594 360.410156 178.855469 360.042969 C 177.652344 359.679688 176.476562 359.234375 175.332031 358.710938 C 174.183594 358.191406 173.078125 357.59375 172.011719 356.925781 L 133.179688 334.445312 C 130.53125 332.863281 127.558594 331.609375 125.683594 329.046875 C 127.339844 326.820312 130.28125 326.535156 132.679688 325.554688 C 138.082031 323.832031 143.027344 321.191406 147.992188 318.398438 C 149.246094 317.523438 150.78125 317.851562 151.980469 318.636719 L 185.09375 337.820312 C 187.457031 339.183594 189.855469 337.382812 191.882812 336.238281 L 318.949219 264.40625 C 320.515625 263.644531 321.386719 261.984375 321.257812 260.261719 L 321.257812 114.378906 C 321.429688 112.414062 320.308594 110.625 318.535156 109.828125 L 189.453125 37.019531 C 189.082031 36.761719 188.679688 36.5625 188.246094 36.429688 C 187.816406 36.292969 187.375 36.226562 186.921875 36.222656 C 186.46875 36.222656 186.027344 36.289062 185.59375 36.421875 C 185.164062 36.554688 184.761719 36.75 184.386719 37.007812 L 55.492188 109.96875 C 53.746094 110.765625 52.550781 112.535156 52.765625 114.5 L 52.765625 260.382812 C 52.613281 262.105469 53.53125 263.730469 55.109375 264.472656 L 89.554688 283.949219 C 96.023438 287.441406 103.964844 289.40625 111.089844 286.839844 C 111.863281 286.550781 112.613281 286.199219 113.332031 285.792969 C 114.054688 285.386719 114.742188 284.925781 115.394531 284.417969 C 116.046875 283.90625 116.65625 283.347656 117.222656 282.742188 C 117.792969 282.140625 118.308594 281.496094 118.78125 280.8125 C 119.25 280.128906 119.664062 279.414062 120.027344 278.667969 C 120.386719 277.921875 120.691406 277.152344 120.9375 276.363281 C 121.179688 275.570312 121.363281 274.761719 121.488281 273.941406 C 121.609375 273.121094 121.667969 272.296875 121.664062 271.46875 L 121.699219 126.457031 C 121.546875 124.308594 123.570312 122.53125 125.652344 122.746094 L 142.210938 122.746094 C 144.386719 122.691406 146.097656 125.007812 145.804688 127.167969 L 145.769531 273.09375 C 145.78125 286.054688 140.464844 300.152344 128.496094 306.515625 C 113.746094 314.152344 95.511719 312.546875 80.9375 305.203125 L 43.902344 284.691406 C 35.1875 280.328125 29.335938 270.898438 29.390625 261.125 L 29.390625 113.820312 C 29.398438 112.628906 29.488281 111.445312 29.65625 110.265625 C 29.820312 109.085938 30.066406 107.921875 30.386719 106.773438 C 30.707031 105.628906 31.105469 104.507812 31.574219 103.410156 C 32.046875 102.316406 32.585938 101.257812 33.195312 100.238281 C 33.808594 99.214844 34.484375 98.238281 35.226562 97.304688 C 35.964844 96.371094 36.765625 95.492188 37.625 94.667969 C 38.480469 93.84375 39.390625 93.078125 40.351562 92.375 C 41.308594 91.667969 42.3125 91.03125 43.355469 90.460938 Z M 210.257812 119.300781 C 229.070312 118.207031 249.210938 118.578125 266.136719 127.863281 C 279.242188 134.980469 286.507812 149.90625 286.746094 164.503906 C 286.378906 166.46875 284.328125 167.558594 282.457031 167.417969 C 277.007812 167.40625 271.542969 167.496094 266.074219 167.386719 C 263.753906 167.472656 262.414062 165.335938 262.117188 163.28125 C 260.550781 156.300781 256.75 149.394531 250.191406 146.019531 C 240.125 140.96875 228.449219 141.21875 217.46875 141.328125 C 209.453125 141.765625 200.835938 142.453125 194.050781 147.167969 C 188.820312 150.746094 187.25 158.078125 189.113281 163.773438 C 190.855469 167.953125 195.683594 169.292969 199.617188 170.539062 C 222.292969 176.472656 246.3125 175.996094 268.566406 183.707031 C 277.773438 186.894531 286.78125 193.09375 289.941406 202.75 C 294.058594 215.6875 292.261719 231.160156 283.078125 241.550781 C 275.625 250.101562 264.777344 254.640625 253.9375 257.28125 C 239.527344 260.5 224.582031 260.578125 209.953125 259.136719 C 196.195312 257.566406 181.882812 253.945312 171.261719 244.558594 C 162.175781 236.660156 157.753906 224.351562 158.191406 212.480469 C 158.296875 210.472656 160.292969 209.078125 162.21875 209.242188 L 178.558594 209.242188 C 180.757812 209.089844 182.371094 210.988281 182.480469 213.058594 C 183.492188 219.605469 185.988281 226.699219 191.785156 230.519531 C 202.960938 237.742188 216.980469 237.238281 229.765625 237.445312 C 240.367188 236.976562 252.261719 236.835938 260.921875 229.808594 C 265.496094 225.804688 266.835938 219.117188 265.605469 213.355469 C 264.265625 208.488281 259.070312 206.230469 254.710938 204.625 C 232.328125 197.53125 208.035156 200.109375 185.867188 192.078125 C 176.871094 188.890625 168.167969 182.867188 164.714844 173.605469 C 159.890625 160.511719 162.101562 144.285156 172.261719 134.246094 C 182.066406 124.265625 196.445312 120.414062 210.0625 119.039062 Z M 210.257812 119.300781 " fill-opacity="1" fill-rule="nonzero"/></svg>