<svg xmlns="http://www.w3.org/2000/svg" xmlns:xlink="http://www.w3.org/1999/xlink" width="500" zoomAndPan="magnify" viewBox="0 0 375 374.999991" height="500" preserveAspectRatio="xMidYMid meet" version="1.0"><defs><clipPath id="85edd419b2"><path d="M 5.644531 0 L 369.394531 0 L 369.394531 363.75 L 5.644531 363.75 Z M 5.644531 0 " clip-rule="nonzero"/></clipPath></defs><g clip-path="url(#85edd419b2)"><path fill="#563d7c" d="M 5.644531 316.847656 C 5.644531 342.75 26.644531 363.75 52.546875 363.75 L 322.488281 363.75 C 348.390625 363.75 369.390625 342.75 369.390625 316.847656 L 369.390625 46.902344 C 369.390625 20.996094 348.390625 0 322.488281 0 L 52.546875 0 C 26.640625 0 5.640625 21 5.640625 46.902344 L 5.640625 316.84375 Z M 5.644531 316.847656 " fill-opacity="1" fill-rule="nonzero"/></g><path fill="#ffffff" d="M 156.484375 160.902344 L 156.484375 109.386719 L 201.828125 109.386719 C 206.148438 109.386719 210.308594 109.746094 214.316406 110.464844 C 218.324219 111.1875 221.875 112.472656 224.960938 114.324219 C 228.042969 116.175781 230.515625 118.746094 232.363281 122.035156 C 234.210938 125.324219 235.132812 129.539062 235.132812 134.679688 C 235.132812 143.9375 232.363281 150.613281 226.804688 154.734375 C 221.265625 158.84375 214.160156 160.902344 205.519531 160.902344 Z M 108.054688 71.753906 L 108.054688 291.996094 L 214.785156 291.996094 C 224.648438 291.996094 234.265625 290.757812 243.617188 288.285156 C 252.980469 285.828125 261.304688 282.019531 268.609375 276.875 C 275.914062 271.734375 281.710938 265.109375 286.03125 256.984375 C 290.347656 248.855469 292.507812 239.25 292.507812 228.140625 C 292.507812 214.371094 289.167969 202.589844 282.492188 192.832031 C 275.800781 183.054688 265.683594 176.21875 252.097656 172.3125 C 261.972656 167.582031 269.433594 161.511719 274.464844 154.109375 C 279.507812 146.707031 282.023438 137.457031 282.023438 126.351562 C 282.023438 116.070312 280.332031 107.433594 276.9375 100.441406 C 273.539062 93.449219 268.765625 87.847656 262.597656 83.632812 C 256.417969 79.414062 249.015625 76.382812 240.390625 74.53125 C 231.75 72.679688 222.1875 71.753906 211.703125 71.753906 Z M 156.484375 254.371094 L 156.484375 193.910156 L 209.230469 193.910156 C 219.714844 193.910156 228.140625 196.324219 234.523438 201.15625 C 240.902344 205.988281 244.085938 214.058594 244.085938 225.367188 C 244.085938 231.125 243.105469 235.855469 241.15625 239.5625 C 239.195312 243.257812 236.582031 246.183594 233.285156 248.34375 C 230.003906 250.503906 226.195312 252.054688 221.875 252.976562 C 217.554688 253.898438 213.039062 254.371094 208.304688 254.371094 Z M 156.484375 254.371094 " fill-opacity="1" fill-rule="nonzero"/></svg>