<svg xmlns="http://www.w3.org/2000/svg" xmlns:xlink="http://www.w3.org/1999/xlink" width="500" zoomAndPan="magnify" viewBox="0 0 375 374.999991" height="500" preserveAspectRatio="xMidYMid meet" version="1.0"><defs><g/><clipPath id="cae1b87b1a"><path d="M 189 134 L 253.609375 134 L 253.609375 227.265625 L 189 227.265625 Z M 189 134 " clip-rule="nonzero"/></clipPath><clipPath id="71cc2e3f74"><path d="M 121.609375 114 L 151 114 L 151 215 L 121.609375 215 Z M 121.609375 114 " clip-rule="nonzero"/></clipPath><clipPath id="63fe541414"><path d="M 158 95.265625 L 226 95.265625 L 226 109 L 158 109 Z M 158 95.265625 " clip-rule="nonzero"/></clipPath></defs><g clip-path="url(#cae1b87b1a)"><path fill="#54afe6" d="M 190.953125 227.226562 C 190.4375 227.226562 190.007812 226.824219 189.980469 226.300781 C 189.953125 225.765625 190.367188 225.304688 190.90625 225.277344 C 224.980469 223.546875 251.671875 195.449219 251.671875 161.308594 C 251.671875 152.339844 249.847656 143.660156 246.246094 135.507812 C 246.027344 135.015625 246.25 134.441406 246.742188 134.222656 C 247.234375 134.003906 247.8125 134.226562 248.027344 134.722656 C 251.738281 143.121094 253.621094 152.066406 253.621094 161.308594 C 253.621094 178.320312 247.140625 194.484375 235.375 206.828125 C 223.648438 219.125 207.890625 226.371094 191.003906 227.226562 C 190.988281 227.226562 190.972656 227.226562 190.953125 227.226562 " fill-opacity="1" fill-rule="nonzero"/></g><g clip-path="url(#71cc2e3f74)"><path fill="#2c3587" d="M 149.390625 214.859375 C 149.191406 214.859375 148.988281 214.796875 148.816406 214.671875 C 140.574219 208.664062 133.734375 200.722656 129.039062 191.703125 C 124.183594 182.378906 121.613281 171.871094 121.613281 161.308594 C 121.613281 143.898438 128.359375 127.460938 140.609375 115.019531 C 140.984375 114.636719 141.601562 114.632812 141.984375 115.011719 C 142.371094 115.390625 142.375 116.007812 141.996094 116.390625 C 130.109375 128.460938 123.566406 144.414062 123.566406 161.308594 C 123.566406 181.683594 133.433594 201.042969 149.964844 213.097656 C 150.398438 213.414062 150.496094 214.023438 150.179688 214.457031 C 149.988281 214.722656 149.691406 214.859375 149.390625 214.859375 " fill-opacity="1" fill-rule="nonzero"/></g><g clip-path="url(#63fe541414)"><path fill="#2c3587" d="M 224.125 108.496094 C 223.9375 108.496094 223.746094 108.441406 223.578125 108.324219 C 212.941406 101.082031 200.507812 97.253906 187.617188 97.253906 C 177.90625 97.253906 168.570312 99.382812 159.875 103.582031 C 159.390625 103.8125 158.804688 103.609375 158.570312 103.128906 C 158.339844 102.640625 158.542969 102.058594 159.027344 101.824219 C 167.992188 97.5 177.609375 95.304688 187.617188 95.304688 C 200.898438 95.304688 213.714844 99.25 224.675781 106.714844 C 225.121094 107.015625 225.238281 107.625 224.933594 108.070312 C 224.742188 108.347656 224.4375 108.496094 224.125 108.496094 " fill-opacity="1" fill-rule="nonzero"/></g><path fill="#286291" d="M 223.03125 211.125 C 222.730469 211.125 222.433594 210.984375 222.242188 210.722656 C 221.925781 210.285156 222.023438 209.675781 222.457031 209.359375 C 230.578125 203.457031 237.121094 195.550781 241.378906 186.496094 C 241.609375 186.011719 242.191406 185.800781 242.675781 186.027344 C 243.164062 186.257812 243.375 186.839844 243.144531 187.328125 C 238.746094 196.675781 231.988281 204.839844 223.601562 210.9375 C 223.429688 211.0625 223.230469 211.125 223.03125 211.125 " fill-opacity="1" fill-rule="nonzero"/><path fill="#f1ad53" d="M 187.617188 222.632812 C 174.410156 222.632812 161.816406 218.480469 151.207031 210.621094 C 146.101562 206.84375 141.625 202.320312 137.902344 197.171875 C 134.132812 191.960938 131.222656 186.234375 129.253906 180.144531 C 129.089844 179.632812 129.371094 179.082031 129.882812 178.917969 C 130.394531 178.753906 130.945312 179.035156 131.109375 179.546875 C 139.070312 204.148438 161.777344 220.679688 187.617188 220.679688 C 192.902344 220.679688 198.148438 219.984375 203.203125 218.605469 C 203.722656 218.464844 204.257812 218.769531 204.398438 219.292969 C 204.542969 219.8125 204.234375 220.347656 203.714844 220.488281 C 198.492188 221.910156 193.078125 222.632812 187.617188 222.632812 " fill-opacity="1" fill-rule="nonzero"/><path fill="#f1ad53" d="M 247.953125 161.042969 C 247.425781 161.042969 246.988281 160.617188 246.980469 160.085938 C 246.328125 128.023438 219.699219 101.9375 187.617188 101.9375 C 168.351562 101.9375 150.199219 111.375 139.054688 127.183594 C 138.746094 127.625 138.136719 127.730469 137.695312 127.421875 C 137.257812 127.113281 137.148438 126.503906 137.460938 126.0625 C 143.015625 118.179688 150.441406 111.628906 158.9375 107.113281 C 167.714844 102.449219 177.632812 99.984375 187.617188 99.984375 C 203.753906 99.984375 218.996094 106.226562 230.542969 117.554688 C 242.074219 128.867188 248.601562 143.957031 248.929688 160.046875 C 248.941406 160.585938 248.511719 161.03125 247.972656 161.042969 C 247.964844 161.042969 247.960938 161.042969 247.953125 161.042969 " fill-opacity="1" fill-rule="nonzero"/><path fill="#f1ad53" d="M 171.847656 215.675781 C 171.757812 215.675781 171.664062 215.664062 171.570312 215.636719 C 160.097656 212.242188 149.765625 205.089844 142.484375 195.496094 C 134.953125 185.582031 130.976562 173.757812 130.976562 161.308594 C 130.976562 140.511719 142.371094 121.414062 160.714844 111.472656 C 161.1875 111.214844 161.78125 111.390625 162.035156 111.863281 C 162.292969 112.339844 162.117188 112.929688 161.644531 113.1875 C 143.929688 122.789062 132.925781 141.226562 132.925781 161.308594 C 132.925781 185.367188 149.046875 206.9375 172.125 213.765625 C 172.640625 213.917969 172.9375 214.460938 172.78125 214.980469 C 172.65625 215.402344 172.269531 215.675781 171.847656 215.675781 " fill-opacity="1" fill-rule="nonzero"/><path fill="#544f9f" d="M 187.617188 217.953125 C 187.414062 217.953125 187.210938 217.949219 187.007812 217.949219 C 186.46875 217.941406 186.035156 217.5 186.042969 216.960938 C 186.046875 216.425781 186.484375 215.996094 187.015625 215.996094 C 187.019531 215.996094 187.023438 215.996094 187.027344 215.996094 C 187.222656 216 187.421875 216 187.617188 216 C 217.777344 216 242.3125 191.46875 242.3125 161.308594 C 242.3125 131.152344 217.777344 106.617188 187.617188 106.617188 C 187.171875 106.617188 186.71875 106.621094 186.277344 106.632812 C 185.734375 106.640625 185.289062 106.21875 185.277344 105.683594 C 185.265625 105.144531 185.691406 104.695312 186.226562 104.683594 C 186.6875 104.671875 187.15625 104.664062 187.617188 104.664062 C 218.851562 104.664062 244.261719 130.074219 244.261719 161.308594 C 244.261719 192.539062 218.851562 217.953125 187.617188 217.953125 " fill-opacity="1" fill-rule="nonzero"/><path fill="#f0401e" d="M 187.617188 213.269531 C 158.964844 213.269531 135.65625 189.960938 135.65625 161.308594 C 135.65625 132.65625 158.964844 109.347656 187.617188 109.347656 C 191.574219 109.347656 195.515625 109.796875 199.335938 110.679688 C 199.863281 110.800781 200.1875 111.324219 200.066406 111.847656 C 199.945312 112.375 199.421875 112.699219 198.898438 112.578125 C 195.21875 111.726562 191.425781 111.296875 187.617188 111.296875 C 160.042969 111.296875 137.605469 133.730469 137.605469 161.308594 C 137.605469 188.886719 160.042969 211.320312 187.617188 211.320312 C 192.875 211.320312 198.054688 210.503906 203.015625 208.894531 C 203.527344 208.730469 204.078125 209.011719 204.242188 209.523438 C 204.410156 210.035156 204.128906 210.585938 203.617188 210.75 C 198.460938 212.421875 193.078125 213.269531 187.617188 213.269531 " fill-opacity="1" fill-rule="nonzero"/><path fill="#544f9f" d="M 221.894531 199.996094 C 221.632812 199.996094 221.367188 199.890625 221.175781 199.679688 C 220.8125 199.28125 220.839844 198.664062 221.242188 198.300781 C 231.65625 188.824219 237.632812 175.339844 237.632812 161.308594 C 237.632812 144.859375 229.507812 129.445312 215.902344 120.082031 C 215.457031 119.777344 215.347656 119.167969 215.652344 118.726562 C 215.957031 118.28125 216.5625 118.171875 217.007812 118.476562 C 231.140625 128.203125 239.582031 144.214844 239.582031 161.308594 C 239.582031 168.746094 238.035156 175.929688 234.988281 182.664062 C 232.042969 189.171875 227.859375 194.917969 222.550781 199.742188 C 222.367188 199.914062 222.132812 199.996094 221.894531 199.996094 " fill-opacity="1" fill-rule="nonzero"/><path fill="#f0401e" d="M 187.617188 208.589844 C 171.527344 208.589844 156.679688 200.496094 147.902344 186.941406 C 147.609375 186.488281 147.738281 185.886719 148.191406 185.59375 C 148.644531 185.300781 149.246094 185.429688 149.539062 185.878906 C 157.957031 198.878906 172.191406 206.640625 187.617188 206.640625 C 212.613281 206.640625 232.949219 186.304688 232.949219 161.308594 C 232.949219 159.320312 232.820312 157.316406 232.5625 155.355469 C 232.492188 154.824219 232.867188 154.332031 233.398438 154.261719 C 233.933594 154.191406 234.421875 154.570312 234.492188 155.101562 C 234.761719 157.144531 234.898438 159.234375 234.898438 161.308594 C 234.898438 187.378906 213.691406 208.589844 187.617188 208.589844 " fill-opacity="1" fill-rule="nonzero"/><path fill="#f1ad53" d="M 141.363281 164.484375 C 140.84375 164.484375 140.414062 164.078125 140.390625 163.554688 C 140.355469 162.8125 140.335938 162.054688 140.335938 161.308594 C 140.335938 135.238281 161.546875 114.027344 187.617188 114.027344 C 206.355469 114.027344 223.351562 125.132812 230.917969 142.320312 C 231.136719 142.8125 230.914062 143.390625 230.417969 143.605469 C 229.925781 143.824219 229.351562 143.597656 229.132812 143.105469 C 221.878906 126.625 205.582031 115.976562 187.617188 115.976562 C 162.621094 115.976562 142.285156 136.3125 142.285156 161.308594 C 142.285156 162.027344 142.304688 162.75 142.335938 163.460938 C 142.363281 164 141.945312 164.457031 141.410156 164.484375 C 141.394531 164.484375 141.378906 164.484375 141.363281 164.484375 " fill-opacity="1" fill-rule="nonzero"/><path fill="#5db3e7" d="M 187.617188 203.910156 C 164.128906 203.910156 145.019531 184.796875 145.019531 161.308594 C 145.019531 154.492188 146.585938 147.976562 149.679688 141.9375 C 149.925781 141.460938 150.515625 141.269531 150.992188 141.515625 C 151.472656 141.761719 151.664062 142.347656 151.417969 142.828125 C 148.464844 148.585938 146.96875 154.804688 146.96875 161.308594 C 146.96875 183.722656 165.203125 201.957031 187.617188 201.957031 C 199.8125 201.957031 211.261719 196.535156 219.035156 187.078125 C 219.375 186.664062 219.988281 186.605469 220.40625 186.945312 C 220.824219 187.289062 220.882812 187.902344 220.539062 188.316406 C 212.398438 198.226562 200.398438 203.910156 187.617188 203.910156 " fill-opacity="1" fill-rule="nonzero"/><path fill="#54afe6" d="M 227.210938 175.148438 C 227.109375 175.148438 227.007812 175.132812 226.910156 175.097656 C 226.394531 174.933594 226.117188 174.382812 226.285156 173.871094 C 227.601562 169.824219 228.269531 165.597656 228.269531 161.308594 C 228.269531 138.894531 210.03125 120.660156 187.617188 120.660156 C 181.015625 120.660156 174.453125 122.285156 168.644531 125.363281 C 168.167969 125.613281 167.578125 125.433594 167.328125 124.957031 C 167.074219 124.484375 167.253906 123.890625 167.730469 123.640625 C 173.820312 120.414062 180.695312 118.707031 187.617188 118.707031 C 211.109375 118.707031 230.21875 137.816406 230.21875 161.308594 C 230.21875 165.804688 229.519531 170.234375 228.136719 174.472656 C 228.003906 174.886719 227.621094 175.148438 227.210938 175.148438 " fill-opacity="1" fill-rule="nonzero"/><path fill="#544f9f" d="M 187.617188 199.230469 C 184.671875 199.230469 181.734375 198.886719 178.886719 198.214844 C 178.363281 198.089844 178.039062 197.566406 178.164062 197.039062 C 178.289062 196.515625 178.8125 196.191406 179.335938 196.316406 C 182.035156 196.953125 184.820312 197.277344 187.617188 197.277344 C 207.453125 197.277344 223.589844 181.140625 223.589844 161.308594 C 223.589844 141.476562 207.453125 125.339844 187.617188 125.339844 C 167.785156 125.339844 151.648438 141.476562 151.648438 161.308594 C 151.648438 171.816406 156.242188 181.777344 164.253906 188.636719 C 164.664062 188.988281 164.710938 189.601562 164.363281 190.011719 C 164.011719 190.421875 163.394531 190.46875 162.988281 190.117188 C 154.542969 182.886719 149.699219 172.386719 149.699219 161.308594 C 149.699219 140.398438 166.710938 123.386719 187.617188 123.386719 C 208.527344 123.386719 225.539062 140.398438 225.539062 161.308594 C 225.539062 182.21875 208.527344 199.230469 187.617188 199.230469 " fill-opacity="1" fill-rule="nonzero"/><path fill="#f1ad53" d="M 187.617188 194.546875 C 180.878906 194.546875 174.386719 192.535156 168.839844 188.726562 C 163.425781 185.003906 159.261719 179.832031 156.804688 173.773438 C 156.601562 173.273438 156.839844 172.703125 157.339844 172.503906 C 157.839844 172.300781 158.40625 172.539062 158.609375 173.039062 C 163.433594 184.921875 174.820312 192.597656 187.617188 192.597656 C 204.871094 192.597656 218.90625 178.5625 218.90625 161.308594 C 218.90625 149.507812 212.363281 138.828125 201.828125 133.433594 C 201.347656 133.191406 201.15625 132.601562 201.402344 132.121094 C 201.648438 131.644531 202.238281 131.453125 202.714844 131.699219 C 208.085938 134.449219 212.617188 138.609375 215.820312 143.730469 C 219.117188 149 220.859375 155.078125 220.859375 161.308594 C 220.859375 179.636719 205.945312 194.546875 187.617188 194.546875 " fill-opacity="1" fill-rule="nonzero"/><path fill="#5db3e7" d="M 156.4375 153.980469 C 156.355469 153.980469 156.269531 153.96875 156.1875 153.945312 C 155.664062 153.804688 155.355469 153.273438 155.496094 152.75 C 157.296875 145.996094 161.304688 139.84375 166.785156 135.425781 C 172.425781 130.875 179.226562 128.339844 186.453125 128.089844 C 186.992188 128.070312 187.445312 128.492188 187.460938 129.03125 C 187.480469 129.566406 187.058594 130.019531 186.519531 130.039062 C 172.882812 130.511719 160.898438 140.058594 157.378906 153.253906 C 157.261719 153.691406 156.867188 153.980469 156.4375 153.980469 " fill-opacity="1" fill-rule="nonzero"/><path fill="#f14d27" d="M 187.617188 189.867188 C 171.871094 189.867188 159.058594 177.054688 159.058594 161.308594 C 159.058594 145.558594 171.871094 132.75 187.617188 132.75 C 203.367188 132.75 216.175781 145.558594 216.175781 161.308594 C 216.175781 163.5 215.929688 165.6875 215.433594 167.804688 C 215.3125 168.332031 214.789062 168.65625 214.265625 168.535156 C 213.738281 168.414062 213.414062 167.890625 213.535156 167.363281 C 213.996094 165.390625 214.226562 163.355469 214.226562 161.308594 C 214.226562 146.636719 202.292969 134.699219 187.617188 134.699219 C 172.945312 134.699219 161.007812 146.636719 161.007812 161.308594 C 161.007812 175.980469 172.945312 187.917969 187.617188 187.917969 C 192.464844 187.917969 197.207031 186.601562 201.335938 184.113281 C 201.796875 183.835938 202.398438 183.984375 202.675781 184.445312 C 202.953125 184.90625 202.804688 185.503906 202.34375 185.78125 C 197.914062 188.453125 192.820312 189.867188 187.617188 189.867188 " fill-opacity="1" fill-rule="nonzero"/><g fill="#ffffff" fill-opacity="1"><g transform="translate(178.983771, 170.155683)"><g><path d="M 13 0 L 11.71875 -4.1875 L 5.296875 -4.1875 L 4.03125 0 L 0 0 L 6.21875 -17.6875 L 10.78125 -17.6875 L 17.015625 0 Z M 10.828125 -7.328125 C 9.648438 -11.117188 8.984375 -13.265625 8.828125 -13.765625 C 8.679688 -14.265625 8.578125 -14.660156 8.515625 -14.953125 C 8.253906 -13.921875 7.492188 -11.378906 6.234375 -7.328125 Z M 10.828125 -7.328125 "/></g></g></g><g fill="#d9d9d9" fill-opacity="1"><g transform="translate(51.065166, 247.419094)"><g><path d="M 10.21875 0 L 7.96875 0 L 6.71875 -4.875 C 6.664062 -5.050781 6.582031 -5.410156 6.46875 -5.953125 C 6.363281 -6.503906 6.300781 -6.867188 6.28125 -7.046875 C 6.257812 -6.828125 6.195312 -6.460938 6.09375 -5.953125 C 5.988281 -5.441406 5.910156 -5.082031 5.859375 -4.875 L 4.609375 0 L 2.375 0 L 0 -9.296875 L 1.9375 -9.296875 L 3.125 -4.21875 C 3.332031 -3.28125 3.484375 -2.46875 3.578125 -1.78125 C 3.597656 -2.019531 3.65625 -2.394531 3.75 -2.90625 C 3.84375 -3.414062 3.929688 -3.8125 4.015625 -4.09375 L 5.359375 -9.296875 L 7.21875 -9.296875 L 8.578125 -4.09375 C 8.640625 -3.851562 8.710938 -3.492188 8.796875 -3.015625 C 8.890625 -2.535156 8.957031 -2.125 9 -1.78125 C 9.039062 -2.113281 9.109375 -2.523438 9.203125 -3.015625 C 9.296875 -3.515625 9.382812 -3.914062 9.46875 -4.21875 L 10.640625 -9.296875 L 12.578125 -9.296875 Z M 10.21875 0 "/></g></g></g><g fill="#d9d9d9" fill-opacity="1"><g transform="translate(73.977349, 247.419094)"><g><path d="M 6.515625 0 L 1.171875 0 L 1.171875 -9.296875 L 6.515625 -9.296875 L 6.515625 -7.671875 L 3.140625 -7.671875 L 3.140625 -5.640625 L 6.28125 -5.640625 L 6.28125 -4.015625 L 3.140625 -4.015625 L 3.140625 -1.625 L 6.515625 -1.625 Z M 6.515625 0 "/></g></g></g><g fill="#d9d9d9" fill-opacity="1"><g transform="translate(91.598758, 247.419094)"><g><path d="M 1.171875 -9.296875 L 4.0625 -9.296875 C 5.375 -9.296875 6.328125 -9.109375 6.921875 -8.734375 C 7.523438 -8.359375 7.828125 -7.757812 7.828125 -6.9375 C 7.828125 -6.382812 7.695312 -5.929688 7.4375 -5.578125 C 7.175781 -5.222656 6.828125 -5.007812 6.390625 -4.9375 L 6.390625 -4.875 C 6.984375 -4.738281 7.410156 -4.488281 7.671875 -4.125 C 7.929688 -3.769531 8.0625 -3.289062 8.0625 -2.6875 C 8.0625 -1.84375 7.753906 -1.179688 7.140625 -0.703125 C 6.523438 -0.234375 5.691406 0 4.640625 0 L 1.171875 0 Z M 3.140625 -5.609375 L 4.28125 -5.609375 C 4.8125 -5.609375 5.195312 -5.691406 5.4375 -5.859375 C 5.675781 -6.023438 5.796875 -6.296875 5.796875 -6.671875 C 5.796875 -7.035156 5.664062 -7.289062 5.40625 -7.4375 C 5.144531 -7.59375 4.734375 -7.671875 4.171875 -7.671875 L 3.140625 -7.671875 Z M 3.140625 -4.046875 L 3.140625 -1.625 L 4.421875 -1.625 C 4.960938 -1.625 5.363281 -1.726562 5.625 -1.9375 C 5.882812 -2.144531 6.015625 -2.460938 6.015625 -2.890625 C 6.015625 -3.660156 5.460938 -4.046875 4.359375 -4.046875 Z M 3.140625 -4.046875 "/></g></g></g><g fill="#d9d9d9" fill-opacity="1"><g transform="translate(110.674655, 247.419094)"><g/></g></g><g fill="#d9d9d9" fill-opacity="1"><g transform="translate(124.389907, 247.419094)"><g><path d="M 8.875 -4.734375 C 8.875 -3.203125 8.4375 -2.03125 7.5625 -1.21875 C 6.695312 -0.40625 5.441406 0 3.796875 0 L 1.171875 0 L 1.171875 -9.296875 L 4.09375 -9.296875 C 5.601562 -9.296875 6.773438 -8.894531 7.609375 -8.09375 C 8.453125 -7.289062 8.875 -6.171875 8.875 -4.734375 Z M 6.828125 -4.6875 C 6.828125 -6.675781 5.945312 -7.671875 4.1875 -7.671875 L 3.140625 -7.671875 L 3.140625 -1.625 L 3.984375 -1.625 C 5.878906 -1.625 6.828125 -2.644531 6.828125 -4.6875 Z M 6.828125 -4.6875 "/></g></g></g><g fill="#d9d9d9" fill-opacity="1"><g transform="translate(144.355005, 247.419094)"><g><path d="M 6.515625 0 L 1.171875 0 L 1.171875 -9.296875 L 6.515625 -9.296875 L 6.515625 -7.671875 L 3.140625 -7.671875 L 3.140625 -5.640625 L 6.28125 -5.640625 L 6.28125 -4.015625 L 3.140625 -4.015625 L 3.140625 -1.625 L 6.515625 -1.625 Z M 6.515625 0 "/></g></g></g><g fill="#d9d9d9" fill-opacity="1"><g transform="translate(161.97641, 247.419094)"><g><path d="M 6.46875 -9.296875 L 8.453125 -9.296875 L 5.296875 0 L 3.15625 0 L 0 -9.296875 L 1.984375 -9.296875 L 3.734375 -3.765625 C 3.835938 -3.429688 3.9375 -3.046875 4.03125 -2.609375 C 4.132812 -2.179688 4.203125 -1.882812 4.234375 -1.71875 C 4.273438 -2.101562 4.429688 -2.785156 4.703125 -3.765625 Z M 6.46875 -9.296875 "/></g></g></g><g fill="#d9d9d9" fill-opacity="1"><g transform="translate(180.766486, 247.419094)"><g><path d="M 6.515625 0 L 1.171875 0 L 1.171875 -9.296875 L 6.515625 -9.296875 L 6.515625 -7.671875 L 3.140625 -7.671875 L 3.140625 -5.640625 L 6.28125 -5.640625 L 6.28125 -4.015625 L 3.140625 -4.015625 L 3.140625 -1.625 L 6.515625 -1.625 Z M 6.515625 0 "/></g></g></g><g fill="#d9d9d9" fill-opacity="1"><g transform="translate(198.387891, 247.419094)"><g><path d="M 1.171875 0 L 1.171875 -9.296875 L 3.140625 -9.296875 L 3.140625 -1.625 L 6.90625 -1.625 L 6.90625 0 Z M 1.171875 0 "/></g></g></g><g fill="#d9d9d9" fill-opacity="1"><g transform="translate(216.072812, 247.419094)"><g><path d="M 9.609375 -4.65625 C 9.609375 -3.113281 9.222656 -1.929688 8.453125 -1.109375 C 7.691406 -0.285156 6.597656 0.125 5.171875 0.125 C 3.753906 0.125 2.660156 -0.285156 1.890625 -1.109375 C 1.128906 -1.929688 0.75 -3.117188 0.75 -4.671875 C 0.75 -6.210938 1.128906 -7.390625 1.890625 -8.203125 C 2.660156 -9.023438 3.757812 -9.4375 5.1875 -9.4375 C 6.613281 -9.4375 7.707031 -9.023438 8.46875 -8.203125 C 9.226562 -7.378906 9.609375 -6.195312 9.609375 -4.65625 Z M 2.828125 -4.65625 C 2.828125 -3.613281 3.019531 -2.832031 3.40625 -2.3125 C 3.800781 -1.789062 4.390625 -1.53125 5.171875 -1.53125 C 6.742188 -1.53125 7.53125 -2.570312 7.53125 -4.65625 C 7.53125 -6.75 6.75 -7.796875 5.1875 -7.796875 C 4.40625 -7.796875 3.816406 -7.53125 3.421875 -7 C 3.023438 -6.476562 2.828125 -5.695312 2.828125 -4.65625 Z M 2.828125 -4.65625 "/></g></g></g><g fill="#d9d9d9" fill-opacity="1"><g transform="translate(236.761977, 247.419094)"><g><path d="M 3.140625 -4.921875 L 3.78125 -4.921875 C 4.394531 -4.921875 4.847656 -5.039062 5.140625 -5.28125 C 5.441406 -5.519531 5.59375 -5.867188 5.59375 -6.328125 C 5.59375 -6.785156 5.46875 -7.125 5.21875 -7.34375 C 4.96875 -7.5625 4.570312 -7.671875 4.03125 -7.671875 L 3.140625 -7.671875 Z M 7.59375 -6.390625 C 7.59375 -5.390625 7.28125 -4.625 6.65625 -4.09375 C 6.03125 -3.570312 5.140625 -3.3125 3.984375 -3.3125 L 3.140625 -3.3125 L 3.140625 0 L 1.171875 0 L 1.171875 -9.296875 L 4.140625 -9.296875 C 5.265625 -9.296875 6.117188 -9.050781 6.703125 -8.5625 C 7.296875 -8.082031 7.59375 -7.359375 7.59375 -6.390625 Z M 7.59375 -6.390625 "/></g></g></g><g fill="#d9d9d9" fill-opacity="1"><g transform="translate(255.266248, 247.419094)"><g><path d="M 5.109375 0 L 2.859375 -7.296875 L 2.8125 -7.296875 C 2.894531 -5.804688 2.9375 -4.816406 2.9375 -4.328125 L 2.9375 0 L 1.171875 0 L 1.171875 -9.296875 L 3.84375 -9.296875 L 6.046875 -2.1875 L 6.09375 -2.1875 L 8.421875 -9.296875 L 11.109375 -9.296875 L 11.109375 0 L 9.265625 0 L 9.265625 -4.390625 C 9.265625 -4.597656 9.265625 -4.835938 9.265625 -5.109375 C 9.273438 -5.378906 9.304688 -6.101562 9.359375 -7.28125 L 9.296875 -7.28125 L 6.90625 0 Z M 5.109375 0 "/></g></g></g><g fill="#d9d9d9" fill-opacity="1"><g transform="translate(277.867207, 247.419094)"><g><path d="M 6.515625 0 L 1.171875 0 L 1.171875 -9.296875 L 6.515625 -9.296875 L 6.515625 -7.671875 L 3.140625 -7.671875 L 3.140625 -5.640625 L 6.28125 -5.640625 L 6.28125 -4.015625 L 3.140625 -4.015625 L 3.140625 -1.625 L 6.515625 -1.625 Z M 6.515625 0 "/></g></g></g><g fill="#d9d9d9" fill-opacity="1"><g transform="translate(295.488612, 247.419094)"><g><path d="M 9.40625 0 L 6.90625 0 L 2.859375 -7.03125 L 2.8125 -7.03125 C 2.894531 -5.789062 2.9375 -4.90625 2.9375 -4.375 L 2.9375 0 L 1.171875 0 L 1.171875 -9.296875 L 3.65625 -9.296875 L 7.6875 -2.328125 L 7.734375 -2.328125 C 7.671875 -3.535156 7.640625 -4.390625 7.640625 -4.890625 L 7.640625 -9.296875 L 9.40625 -9.296875 Z M 9.40625 0 "/></g></g></g><g fill="#d9d9d9" fill-opacity="1"><g transform="translate(316.400079, 247.419094)"><g><path d="M 4.75 0 L 2.78125 0 L 2.78125 -7.65625 L 0.265625 -7.65625 L 0.265625 -9.296875 L 7.28125 -9.296875 L 7.28125 -7.65625 L 4.75 -7.65625 Z M 4.75 0 "/></g></g></g></svg>