<svg xmlns="http://www.w3.org/2000/svg" xmlns:xlink="http://www.w3.org/1999/xlink" width="500" zoomAndPan="magnify" viewBox="0 0 375 374.999991" height="500" preserveAspectRatio="xMidYMid meet" version="1.0"><path fill="#f06292" d="M 314.027344 198.871094 C 301.816406 198.933594 291.242188 201.863281 282.378906 206.242188 C 279.140625 199.765625 275.851562 194.070312 275.304688 189.835938 C 274.660156 184.898438 273.914062 181.941406 274.691406 176.054688 C 275.472656 170.171875 278.878906 161.832031 278.832031 161.203125 C 278.78125 160.574219 278.066406 157.582031 271.023438 157.523438 C 263.980469 157.476562 257.957031 158.882812 257.25 160.742188 C 256.542969 162.601562 255.183594 166.785156 254.34375 171.15625 C 253.113281 177.542969 240.28125 200.332031 233 212.246094 C 230.617188 207.589844 228.59375 203.492188 228.171875 200.25 C 227.527344 195.3125 226.78125 192.355469 227.558594 186.46875 C 228.339844 180.585938 231.746094 172.242188 231.695312 171.617188 C 231.648438 170.988281 230.933594 167.992188 223.890625 167.9375 C 216.847656 167.890625 210.824219 169.296875 210.117188 171.15625 C 209.410156 173.015625 208.648438 177.359375 207.210938 181.570312 C 205.765625 185.769531 188.71875 223.777344 184.246094 233.636719 C 181.96875 238.65625 179.992188 242.691406 178.59375 245.441406 C 178.585938 245.433594 178.585938 245.425781 178.585938 245.425781 C 178.585938 245.425781 178.5 245.605469 178.355469 245.917969 C 177.15625 248.261719 176.449219 249.554688 176.449219 249.554688 C 176.449219 249.554688 176.457031 249.570312 176.472656 249.601562 C 175.519531 251.328125 174.503906 252.921875 174.003906 252.921875 C 173.65625 252.921875 172.949219 248.339844 174.15625 242.046875 C 176.695312 228.863281 182.785156 208.304688 182.730469 207.589844 C 182.699219 207.226562 183.867188 203.644531 178.753906 201.769531 C 173.78125 199.949219 172.011719 202.984375 171.558594 202.992188 C 171.121094 203 170.796875 204.0625 170.796875 204.0625 C 170.796875 204.0625 176.332031 180.941406 160.234375 180.941406 C 150.167969 180.941406 136.222656 191.957031 129.355469 201.941406 C 125.019531 204.308594 115.738281 209.378906 105.902344 214.789062 C 102.121094 216.867188 98.261719 218.988281 94.601562 221.007812 C 94.355469 220.730469 94.101562 220.460938 93.847656 220.179688 C 74.324219 199.347656 38.242188 184.609375 39.765625 156.59375 C 40.324219 146.414062 43.863281 119.597656 109.109375 87.078125 C 162.554688 60.433594 205.34375 67.765625 212.734375 84.011719 C 223.296875 107.226562 189.867188 150.367188 134.367188 156.59375 C 113.222656 158.96875 102.082031 150.765625 99.3125 147.714844 C 96.398438 144.496094 95.960938 144.355469 94.871094 144.957031 C 93.101562 145.945312 94.222656 148.78125 94.871094 150.472656 C 96.53125 154.785156 103.328125 162.433594 114.921875 166.246094 C 125.125 169.597656 149.953125 171.433594 179.976562 159.8125 C 213.609375 146.800781 239.867188 110.597656 232.148438 80.339844 C 224.304688 49.570312 173.296875 39.449219 125.019531 56.605469 C 96.253906 66.820312 65.152344 82.851562 42.785156 103.773438 C 16.191406 128.652344 11.953125 150.3125 13.699219 159.359375 C 19.910156 191.515625 64.207031 212.453125 81.945312 227.964844 C 81.070312 228.449219 80.246094 228.902344 79.5 229.316406 C 70.605469 233.714844 36.835938 251.398438 28.390625 270.074219 C 18.804688 291.257812 29.914062 306.460938 37.265625 308.507812 C 60.046875 314.847656 83.421875 303.441406 95.992188 284.695312 C 108.554688 265.957031 107.019531 241.546875 101.257812 230.410156 C 101.183594 230.277344 101.105469 230.140625 101.035156 230 C 103.328125 228.640625 105.671875 227.257812 107.988281 225.890625 C 112.515625 223.230469 116.960938 220.753906 120.8125 218.65625 C 118.652344 224.566406 117.074219 231.660156 116.253906 241.898438 C 115.285156 253.921875 120.21875 269.46875 126.664062 275.585938 C 129.507812 278.277344 132.921875 278.339844 135.082031 278.339844 C 142.585938 278.339844 146.007812 272.097656 149.777344 264.710938 C 154.398438 255.65625 158.503906 245.105469 158.503906 245.105469 C 158.503906 245.105469 153.359375 273.589844 167.382812 273.589844 C 172.496094 273.589844 177.632812 266.957031 179.925781 263.582031 C 179.933594 263.621094 179.933594 263.636719 179.933594 263.636719 C 179.933594 263.636719 180.070312 263.414062 180.332031 262.980469 C 180.863281 262.167969 181.164062 261.652344 181.164062 261.652344 C 181.164062 261.652344 181.175781 261.597656 181.191406 261.5 C 183.246094 257.933594 187.804688 249.800781 194.632812 236.386719 C 203.460938 219.054688 211.925781 197.335938 211.925781 197.335938 C 211.925781 197.335938 212.710938 202.640625 215.292969 211.425781 C 216.808594 216.589844 220.03125 222.300781 222.582031 227.78125 C 220.535156 230.625 219.277344 232.253906 219.277344 232.253906 C 219.277344 232.253906 219.285156 232.285156 219.3125 232.34375 C 217.675781 234.519531 215.839844 236.863281 213.917969 239.148438 C 206.949219 247.449219 198.648438 256.933594 197.539062 259.667969 C 196.226562 262.890625 196.539062 265.257812 199.070312 267.171875 C 200.921875 268.5625 204.207031 268.785156 207.644531 268.554688 C 213.910156 268.132812 218.308594 266.578125 220.484375 265.632812 C 223.875 264.433594 227.824219 262.550781 231.523438 259.824219 C 238.359375 254.796875 242.480469 247.609375 242.082031 238.078125 C 241.859375 232.828125 240.191406 227.625 238.074219 222.714844 C 238.691406 221.824219 239.3125 220.917969 239.9375 220.015625 C 250.714844 204.253906 259.074219 186.9375 259.074219 186.9375 C 259.074219 186.9375 259.859375 192.246094 262.441406 201.03125 C 263.742188 205.46875 266.324219 210.324219 268.644531 215.074219 C 258.511719 223.3125 252.230469 232.882812 250.046875 239.15625 C 246.011719 250.769531 249.171875 256.027344 255.097656 257.226562 C 257.78125 257.769531 261.574219 256.535156 264.425781 255.328125 C 267.976562 254.152344 272.238281 252.191406 276.226562 249.261719 C 283.0625 244.234375 289.636719 237.195312 289.238281 227.671875 C 289.058594 223.335938 287.882812 219.027344 286.285156 214.898438 C 294.878906 211.316406 305.992188 209.332031 320.160156 210.984375 C 350.546875 214.535156 356.5 233.507812 355.367188 241.453125 C 354.222656 249.394531 347.855469 253.765625 345.71875 255.082031 C 343.589844 256.402344 342.9375 256.863281 343.113281 257.839844 C 343.375 259.261719 344.359375 259.214844 346.179688 258.902344 C 348.679688 258.484375 362.128906 252.445312 362.710938 237.78125 C 363.433594 219.148438 345.605469 198.703125 314.027344 198.871094 Z M 79.816406 277.855469 C 69.75 288.84375 55.695312 292.988281 49.660156 289.492188 C 43.148438 285.71875 45.730469 269.546875 58.078125 257.886719 C 65.605469 250.785156 75.324219 244.242188 81.769531 240.214844 C 83.238281 239.332031 85.390625 238.039062 88.011719 236.464844 C 88.449219 236.21875 88.695312 236.082031 88.695312 236.082031 L 88.6875 236.066406 C 89.195312 235.765625 89.710938 235.457031 90.242188 235.128906 C 94.746094 251.722656 90.386719 266.332031 79.816406 277.855469 Z M 153.144531 227.996094 C 149.644531 236.542969 142.308594 258.417969 137.835938 257.242188 C 134 256.234375 131.667969 239.609375 137.074219 223.246094 C 139.789062 215.011719 145.601562 205.167969 149.015625 201.347656 C 154.511719 195.199219 160.5625 193.191406 162.03125 195.683594 C 163.894531 198.863281 155.34375 222.636719 153.144531 227.996094 Z M 213.71875 256.910156 C 212.234375 257.6875 210.871094 258.171875 210.242188 257.800781 C 209.773438 257.523438 210.855469 256.496094 210.855469 256.496094 C 210.855469 256.496094 218.429688 248.339844 221.414062 244.628906 C 223.152344 242.46875 225.164062 239.902344 227.355469 237.042969 C 227.371094 237.332031 227.378906 237.617188 227.378906 237.894531 C 227.363281 247.664062 217.929688 254.257812 213.71875 256.910156 Z M 260.386719 246.265625 C 259.273438 245.480469 259.464844 242.929688 263.109375 234.980469 C 264.539062 231.859375 267.808594 226.605469 273.476562 221.585938 C 274.136719 223.652344 274.535156 225.628906 274.527344 227.472656 C 274.457031 239.769531 265.6875 244.359375 260.386719 246.265625 Z M 260.386719 246.265625 " fill-opacity="1" fill-rule="nonzero"/></svg>