<svg xmlns="http://www.w3.org/2000/svg" xmlns:xlink="http://www.w3.org/1999/xlink" width="500" zoomAndPan="magnify" viewBox="0 0 375 374.999991" height="500" preserveAspectRatio="xMidYMid meet" version="1.0"><defs><clipPath id="4fa9df237f"><path d="M 11.007812 11.007812 L 374 11.007812 L 374 374 L 11.007812 374 Z M 11.007812 11.007812 " clip-rule="nonzero"/></clipPath><clipPath id="d9a0290494"><path d="M 11.007812 11.007812 L 374 11.007812 L 374 104 L 11.007812 104 Z M 11.007812 11.007812 " clip-rule="nonzero"/></clipPath><clipPath id="87cb341d63"><path d="M 11.007812 11.007812 L 193 11.007812 L 193 374 L 11.007812 374 Z M 11.007812 11.007812 " clip-rule="nonzero"/></clipPath><clipPath id="82eeb53a55"><path d="M 11.007812 11.007812 L 193 11.007812 L 193 104 L 11.007812 104 Z M 11.007812 11.007812 " clip-rule="nonzero"/></clipPath></defs><g clip-path="url(#4fa9df237f)"><path fill="#5e94ff" d="M 56.6875 10.160156 C 30.992188 10.160156 10.160156 30.992188 10.160156 56.6875 L 10.160156 327.386719 C 10.160156 353.082031 30.992188 373.910156 56.6875 373.910156 L 327.386719 373.910156 C 353.082031 373.910156 373.910156 353.082031 373.910156 327.386719 L 373.910156 56.6875 C 373.910156 30.992188 353.082031 10.160156 327.386719 10.160156 Z M 56.6875 10.160156 " fill-opacity="1" fill-rule="nonzero"/></g><g clip-path="url(#d9a0290494)"><path fill="#4dc4ff" d="M 56.6875 10.160156 C 30.992188 10.160156 10.160156 30.992188 10.160156 56.6875 L 10.160156 90.523438 C 10.160156 97.53125 15.84375 103.214844 22.851562 103.214844 L 361.222656 103.214844 C 368.230469 103.214844 373.910156 97.53125 373.910156 90.523438 L 373.910156 56.6875 C 373.910156 30.992188 353.082031 10.160156 327.386719 10.160156 Z M 56.6875 10.160156 " fill-opacity="1" fill-rule="nonzero"/></g><g clip-path="url(#87cb341d63)"><path fill="#5485e5" d="M 192.035156 10.160156 L 192.035156 373.910156 L 56.6875 373.910156 C 30.992188 373.910156 10.160156 353.082031 10.160156 327.386719 L 10.160156 56.6875 C 10.160156 30.992188 30.992188 10.160156 56.6875 10.160156 Z M 192.035156 10.160156 " fill-opacity="1" fill-rule="evenodd"/></g><g clip-path="url(#82eeb53a55)"><path fill="#45b0e5" d="M 192.035156 10.160156 L 192.035156 103.214844 L 22.851562 103.214844 C 15.84375 103.214844 10.160156 97.53125 10.160156 90.523438 L 10.160156 56.6875 C 10.160156 30.992188 30.992188 10.160156 56.6875 10.160156 Z M 192.035156 10.160156 " fill-opacity="1" fill-rule="evenodd"/></g><path fill="#eceff1" d="M 204.726562 141.28125 C 204.726562 134.273438 210.40625 128.589844 217.414062 128.589844 L 310.464844 128.589844 C 317.472656 128.589844 323.15625 134.273438 323.15625 141.28125 C 323.15625 148.289062 317.472656 153.96875 310.464844 153.96875 L 230.101562 153.96875 L 230.101562 213.183594 L 310.464844 213.183594 C 317.472656 213.183594 323.15625 218.867188 323.15625 225.875 L 323.15625 310.464844 C 323.15625 317.472656 317.472656 323.15625 310.464844 323.15625 L 217.414062 323.15625 C 210.40625 323.15625 204.726562 317.472656 204.726562 310.464844 C 204.726562 303.460938 210.40625 297.777344 217.414062 297.777344 L 297.777344 297.777344 L 297.777344 238.5625 L 217.414062 238.5625 C 210.40625 238.5625 204.726562 232.882812 204.726562 225.875 Z M 204.726562 141.28125 " fill-opacity="1" fill-rule="evenodd"/><path fill="#cfd8dc" d="M 44 141.28125 C 44 134.273438 49.679688 128.589844 56.6875 128.589844 L 175.117188 128.589844 C 182.125 128.589844 187.808594 134.273438 187.808594 141.28125 C 187.808594 148.289062 182.125 153.96875 175.117188 153.96875 L 128.589844 153.96875 L 128.589844 310.464844 C 128.589844 317.472656 122.910156 323.15625 115.902344 323.15625 C 108.894531 323.15625 103.214844 317.472656 103.214844 310.464844 L 103.214844 153.96875 L 56.6875 153.96875 C 49.679688 153.96875 44 148.289062 44 141.28125 Z M 44 141.28125 " fill-opacity="1" fill-rule="evenodd"/></svg>