<?xml version="1.0" standalone="no"?><svg xmlns="http://www.w3.org/2000/svg" viewBox="0 0 1440 150"><path fill="#AA367Cff" fill-opacity="1" d="M0,96L34.3,128C68.6,160,137,224,206,256C274.3,288,343,288,411,266.7C480,245,549,203,617,176C685.7,149,754,139,823,160C891.4,181,960,235,1029,250.7C1097.1,267,1166,245,1234,213.3C1302.9,181,1371,139,1406,117.3L1440,96L1440,0L1405.7,0C1371.4,0,1303,0,1234,0C1165.7,0,1097,0,1029,0C960,0,891,0,823,0C754.3,0,686,0,617,0C548.6,0,480,0,411,0C342.9,0,274,0,206,0C137.1,0,69,0,34,0L0,0Z"></path></svg>