<svg xmlns="http://www.w3.org/2000/svg" xmlns:xlink="http://www.w3.org/1999/xlink" width="500" zoomAndPan="magnify" viewBox="0 0 375 374.999991" height="500" preserveAspectRatio="xMidYMid meet" version="1.0"><path fill="#ffc44d" d="M 5.371094 -10.199219 C 1.429688 -10.199219 -2.320312 -8.503906 -4.925781 -5.550781 C -7.535156 -2.597656 -8.75 1.332031 -8.261719 5.242188 L 28.367188 298.265625 C 28.9375 302.824219 31.746094 306.792969 35.855469 308.847656 L 182.367188 382.101562 C 186.234375 384.035156 190.785156 384.035156 194.652344 382.101562 L 341.164062 308.847656 C 345.269531 306.792969 348.082031 302.824219 348.648438 298.265625 L 385.277344 5.242188 C 385.765625 1.332031 384.550781 -2.597656 381.945312 -5.550781 C 379.339844 -8.503906 375.585938 -10.199219 371.648438 -10.199219 Z M 5.371094 -10.199219 " fill-opacity="1" fill-rule="nonzero"/><path fill="#e5b045" d="M 188.507812 -10.199219 L 188.507812 383.550781 C 186.40625 383.550781 184.300781 383.070312 182.367188 382.101562 L 35.855469 308.847656 C 31.746094 306.792969 28.9375 302.824219 28.367188 298.265625 L -8.261719 5.242188 C -8.75 1.332031 -7.535156 -2.597656 -4.925781 -5.550781 C -2.320312 -8.503906 1.429688 -10.199219 5.371094 -10.199219 Z M 188.507812 -10.199219 " fill-opacity="1" fill-rule="evenodd"/><path fill="#cfd8dc" d="M 161.039062 44.746094 C 168.625 44.746094 174.773438 50.894531 174.773438 58.480469 L 174.773438 296.5625 C 174.773438 301.457031 172.167969 305.984375 167.933594 308.441406 C 163.699219 310.898438 158.476562 310.914062 154.226562 308.488281 L 90.125 271.859375 C 83.539062 268.097656 81.253906 259.703125 85.015625 253.117188 C 88.78125 246.53125 97.171875 244.242188 103.757812 248.007812 L 147.304688 272.890625 L 147.304688 58.480469 C 147.304688 50.894531 153.453125 44.746094 161.039062 44.746094 Z M 161.039062 44.746094 " fill-opacity="1" fill-rule="evenodd"/><path fill="#eceff1" d="M 202.25 58.480469 C 202.25 50.894531 208.398438 44.746094 215.984375 44.746094 L 307.554688 44.746094 C 315.140625 44.746094 321.289062 50.894531 321.289062 58.480469 C 321.289062 66.066406 315.140625 72.214844 307.554688 72.214844 L 229.71875 72.214844 L 229.71875 160.398438 L 295.417969 145.796875 C 299.695312 144.847656 304.175781 145.996094 307.46875 148.894531 C 310.761719 151.789062 312.472656 156.082031 312.074219 160.449219 L 302.917969 261.175781 C 302.488281 265.914062 299.636719 270.09375 295.382812 272.21875 L 222.125 308.847656 C 215.339844 312.238281 207.089844 309.488281 203.695312 302.703125 C 200.304688 295.917969 203.054688 287.667969 209.839844 284.277344 L 276.253906 251.070312 L 283.015625 176.695312 L 218.964844 190.929688 C 214.894531 191.832031 210.636719 190.84375 207.390625 188.234375 C 204.136719 185.628906 202.25 181.6875 202.25 177.519531 Z M 202.25 58.480469 " fill-opacity="1" fill-rule="evenodd"/></svg>