<svg xmlns="http://www.w3.org/2000/svg" xmlns:xlink="http://www.w3.org/1999/xlink" width="500" zoomAndPan="magnify" viewBox="0 0 375 374.999991" height="500" preserveAspectRatio="xMidYMid meet" version="1.0"><defs><clipPath id="08e60361e0"><path d="M 3 6 L 371.902344 6 L 371.902344 336 L 3 336 Z M 3 6 " clip-rule="nonzero"/></clipPath></defs><g clip-path="url(#08e60361e0)"><path fill="#00d8ff" d="M 306.148438 113.265625 C 302.335938 111.949219 298.375 110.703125 294.285156 109.523438 C 294.964844 106.785156 295.582031 104.082031 296.128906 101.425781 C 305.097656 57.804688 299.238281 22.660156 279.183594 11.089844 C 259.949219 -0.00390625 228.503906 11.5625 196.746094 39.21875 C 193.691406 41.878906 190.625 44.695312 187.574219 47.644531 C 185.53125 45.691406 183.5 43.804688 181.46875 42 C 148.183594 12.429688 114.820312 -0.03125 94.789062 11.574219 C 75.578125 22.699219 69.890625 55.738281 77.976562 97.078125 C 78.753906 101.074219 79.667969 105.152344 80.699219 109.296875 C 75.976562 110.636719 71.417969 112.066406 67.058594 113.589844 C 28.035156 127.203125 3.117188 148.535156 3.117188 170.667969 C 3.117188 193.515625 29.871094 216.449219 70.511719 230.351562 C 73.71875 231.449219 77.046875 232.484375 80.476562 233.464844 C 79.363281 237.945312 78.398438 242.339844 77.582031 246.632812 C 69.875 287.257812 75.894531 319.511719 95.054688 330.5625 C 114.839844 341.984375 148.054688 330.246094 180.390625 301.964844 C 182.953125 299.734375 185.515625 297.355469 188.078125 294.878906 C 191.417969 298.074219 194.742188 301.117188 198.039062 303.96875 C 229.371094 330.9375 260.308594 341.828125 279.441406 330.75 C 299.210938 319.296875 305.644531 284.636719 297.296875 242.484375 C 296.664062 239.257812 295.914062 235.972656 295.09375 232.628906 C 297.425781 231.9375 299.714844 231.21875 301.945312 230.484375 C 344.203125 216.464844 371.6875 193.832031 371.6875 170.667969 C 371.6875 148.457031 345.957031 126.976562 306.148438 113.265625 Z M 296.992188 215.527344 C 294.976562 216.191406 292.90625 216.839844 290.800781 217.460938 C 286.136719 202.691406 279.847656 186.976562 272.128906 170.742188 C 279.484375 154.894531 285.53125 139.382812 290.066406 124.703125 C 293.839844 125.796875 297.496094 126.949219 301.023438 128.164062 C 335.132812 139.910156 355.9375 157.285156 355.9375 170.667969 C 355.9375 184.917969 333.476562 203.429688 296.992188 215.527344 Z M 281.847656 245.535156 C 285.546875 264.179688 286.066406 281.035156 283.617188 294.214844 C 281.429688 306.058594 277.011719 313.953125 271.554688 317.105469 C 259.933594 323.832031 235.097656 315.089844 208.320312 292.023438 C 205.238281 289.375 202.144531 286.550781 199.046875 283.570312 C 209.429688 272.203125 219.808594 258.992188 229.945312 244.3125 C 247.753906 242.742188 264.585938 240.148438 279.859375 236.621094 C 280.609375 239.660156 281.273438 242.628906 281.847656 245.535156 Z M 128.777344 315.9375 C 117.429688 319.957031 108.390625 320.074219 102.925781 316.917969 C 91.300781 310.207031 86.464844 284.304688 93.058594 249.570312 C 93.816406 245.59375 94.714844 241.503906 95.75 237.324219 C 110.847656 240.667969 127.558594 243.074219 145.417969 244.515625 C 155.617188 258.878906 166.300781 272.074219 177.054688 283.625 C 174.707031 285.902344 172.363281 288.0625 170.03125 290.09375 C 155.734375 302.613281 141.40625 311.488281 128.777344 315.9375 Z M 75.609375 215.441406 C 57.640625 209.292969 42.796875 201.308594 32.625 192.582031 C 23.480469 184.757812 18.867188 176.980469 18.867188 170.667969 C 18.867188 157.242188 38.875 140.109375 72.246094 128.464844 C 76.296875 127.054688 80.535156 125.722656 84.933594 124.472656 C 89.546875 139.484375 95.597656 155.183594 102.898438 171.042969 C 95.5 187.148438 89.363281 203.097656 84.707031 218.296875 C 81.570312 217.386719 78.535156 216.4375 75.609375 215.441406 Z M 93.433594 94.054688 C 86.503906 58.632812 91.105469 31.914062 102.683594 25.207031 C 115.011719 18.066406 142.277344 28.25 171.007812 53.78125 C 172.851562 55.414062 174.695312 57.121094 176.550781 58.890625 C 165.839844 70.394531 155.257812 83.492188 145.148438 97.769531 C 127.8125 99.375 111.222656 101.957031 95.964844 105.417969 C 95.007812 101.554688 94.15625 97.761719 93.433594 94.054688 Z M 252.40625 133.335938 C 248.765625 127.03125 245.019531 120.878906 241.207031 114.890625 C 252.96875 116.378906 264.226562 118.355469 274.808594 120.769531 C 271.640625 130.957031 267.683594 141.605469 263.015625 152.53125 C 259.675781 146.175781 256.136719 139.773438 252.40625 133.335938 Z M 187.574219 70.148438 C 194.847656 78.023438 202.117188 86.8125 209.273438 96.347656 C 202.058594 96.007812 194.761719 95.832031 187.402344 95.832031 C 180.117188 95.832031 172.875 96.003906 165.707031 96.339844 C 172.863281 86.890625 180.203125 78.113281 187.574219 70.148438 Z M 122.328125 133.445312 C 118.6875 139.765625 115.214844 146.132812 111.925781 152.515625 C 107.339844 141.632812 103.417969 130.933594 100.214844 120.601562 C 110.730469 118.25 121.945312 116.324219 133.628906 114.863281 C 129.757812 120.90625 125.984375 127.105469 122.328125 133.445312 Z M 133.964844 227.585938 C 121.890625 226.246094 110.511719 224.417969 99.996094 222.128906 C 103.253906 211.609375 107.261719 200.691406 111.945312 189.570312 C 115.242188 195.953125 118.726562 202.320312 122.390625 208.65625 L 122.394531 208.65625 C 126.125 215.113281 129.996094 221.421875 133.964844 227.585938 Z M 188.007812 272.289062 C 180.550781 264.234375 173.105469 255.320312 165.835938 245.738281 C 172.890625 246.011719 180.089844 246.15625 187.402344 246.15625 C 194.917969 246.15625 202.347656 245.984375 209.648438 245.667969 C 202.476562 255.417969 195.21875 264.351562 188.007812 272.289062 Z M 263.160156 189.007812 C 268.085938 200.246094 272.246094 211.105469 275.542969 221.449219 C 264.859375 223.882812 253.3125 225.84375 241.164062 227.3125 C 244.992188 221.25 248.765625 214.980469 252.476562 208.542969 C 256.234375 202.03125 259.792969 195.503906 263.160156 189.007812 Z M 238.828125 200.675781 C 233.070312 210.675781 227.152344 220.210938 221.148438 229.214844 C 210.222656 229.992188 198.921875 230.394531 187.402344 230.394531 C 175.929688 230.394531 164.769531 230.050781 154.03125 229.34375 C 147.78125 220.226562 141.742188 210.660156 136.015625 200.761719 L 136.019531 200.761719 C 130.308594 190.894531 125.054688 180.941406 120.292969 171.042969 C 125.050781 161.132812 130.292969 151.164062 135.972656 141.3125 L 135.96875 141.316406 C 141.660156 131.441406 147.652344 121.914062 153.84375 112.847656 C 164.800781 112.015625 176.042969 111.585938 187.402344 111.585938 C 198.820312 111.585938 210.0625 112.023438 221.019531 112.855469 C 227.125 121.859375 233.070312 131.351562 238.785156 141.230469 C 244.558594 151.21875 249.871094 161.117188 254.667969 170.828125 C 249.886719 180.695312 244.589844 190.691406 238.828125 200.675781 Z M 271.308594 24.734375 C 283.664062 31.859375 288.457031 60.578125 280.695312 98.242188 C 280.207031 100.648438 279.644531 103.09375 279.042969 105.574219 C 263.75 102.042969 247.152344 99.417969 229.773438 97.785156 C 219.636719 83.355469 209.144531 70.234375 198.605469 58.878906 C 201.441406 56.152344 204.277344 53.550781 207.082031 51.097656 C 234.292969 27.40625 259.734375 18.050781 271.308594 24.734375 Z M 187.402344 137.730469 C 205.570312 137.730469 220.316406 152.46875 220.316406 170.664062 C 220.316406 188.84375 205.570312 203.597656 187.402344 203.597656 C 169.234375 203.597656 154.492188 188.84375 154.492188 170.664062 C 154.492188 152.46875 169.234375 137.730469 187.402344 137.730469 Z M 187.402344 137.730469 " fill-opacity="1" fill-rule="nonzero"/></g></svg>