<svg xmlns="http://www.w3.org/2000/svg" xmlns:xlink="http://www.w3.org/1999/xlink" width="500" zoomAndPan="magnify" viewBox="0 0 375 374.999991" height="500" preserveAspectRatio="xMidYMid meet" version="1.0"><path fill="#de4c36" d="M 355.574219 161.417969 L 202.925781 8.78125 C 194.140625 -0.0117188 179.882812 -0.0117188 171.089844 8.78125 L 139.382812 40.476562 L 179.597656 80.691406 C 188.9375 77.53125 199.660156 79.652344 207.101562 87.097656 C 214.585938 94.597656 216.691406 105.402344 213.453125 114.777344 L 252.214844 153.539062 C 261.582031 150.300781 272.398438 152.390625 279.898438 159.886719 C 290.359375 170.347656 290.359375 187.3125 279.898438 197.773438 C 269.421875 208.25 252.472656 208.25 241.996094 197.773438 C 234.117188 189.894531 232.179688 178.339844 236.164062 168.640625 L 200.027344 132.496094 L 200.015625 227.601562 C 202.570312 228.871094 204.972656 230.550781 207.101562 232.667969 C 217.566406 243.128906 217.566406 260.09375 207.101562 270.566406 C 196.640625 281.027344 179.664062 281.027344 169.21875 270.566406 C 158.757812 260.09375 158.757812 243.128906 169.21875 232.667969 C 171.796875 230.085938 174.789062 228.132812 177.984375 226.824219 L 177.984375 130.832031 C 174.789062 129.527344 171.8125 127.585938 169.21875 124.988281 C 161.28125 117.066406 159.382812 105.433594 163.441406 95.695312 L 123.808594 56.054688 L 19.136719 160.722656 C 10.339844 169.515625 10.339844 183.773438 19.136719 192.570312 L 171.785156 345.21875 C 180.582031 354 194.839844 354 203.636719 345.21875 L 355.574219 193.28125 C 364.371094 184.484375 364.371094 170.214844 355.574219 161.417969 " fill-opacity="1" fill-rule="nonzero"/></svg>